<?xml version="1.0" encoding="UTF-8" standalone="no"?>
<!DOCTYPE svg PUBLIC "-//W3C//DTD SVG 1.1//EN" "http://www.w3.org/Graphics/SVG/1.1/DTD/svg11.dtd">
<svg width="100%" height="100%" viewBox="0 0 492 492" version="1.1" xmlns="http://www.w3.org/2000/svg" xmlns:xlink="http://www.w3.org/1999/xlink" xml:space="preserve" style="fill-rule:evenodd;clip-rule:evenodd;stroke-linecap:round;stroke-linejoin:round;stroke-miterlimit:1.5;">
    <g transform="matrix(1,0,0,1,-424.091,-150.229)">
        <g>
            <path d="M670.018,153.979C803.679,153.979 912.194,262.495 912.194,396.156C912.194,529.817 803.679,638.333 670.018,638.333C536.357,638.333 427.841,529.817 427.841,396.156C427.841,262.495 536.357,153.979 670.018,153.979ZM670.018,190.764C742.158,190.764 805.661,228.036 842.305,284.358C845.988,290.019 845.145,294.875 843.109,301.35C839.394,313.167 803.043,327.683 803.043,327.683L819.969,383.856C819.969,383.856 844.335,380.208 860.669,383.867C869.639,385.877 874.912,395.728 874.912,398.75C874.912,487.692 818.563,561.908 739.536,589.754C734.672,591.468 717.947,593.924 712.15,585.249C701.725,569.649 700.674,544.16 700.674,544.16L640,544.394C640,544.394 638.181,564.574 628.424,584.034C624.549,591.764 614.006,594.078 607.369,591.988C524.721,565.974 465.001,489.69 465.001,398.187C465.001,395.211 467.542,386.334 476.133,384.638C493.19,381.268 522.194,384.72 522.194,384.72L538.406,327.029C538.406,327.029 503.099,312.144 497.562,303.933C493.474,297.872 496.277,286.577 498.022,283.911C534.71,227.839 598.068,190.764 670.018,190.764Z" style="stroke:black;stroke-width:7.5px;"/>
            <g transform="matrix(0.883746,0,0,0.883746,411.703,-9.06325)">
                <path d="M292.295,400.156L297.269,436.879L317.683,405.951L306.23,441.195L338.042,422.187L312.432,448.972L349.341,445.648L314.645,458.669L349.341,471.689L312.432,468.366L338.042,495.151L306.23,476.143L317.683,511.387L297.269,480.458L292.295,517.181L287.322,480.458L266.908,511.387L278.361,476.143L246.548,495.151L272.159,468.366L235.25,471.689L269.946,458.669L235.25,445.648L272.159,448.972L246.548,422.187L278.361,441.195L266.908,405.951L287.322,436.879L292.295,400.156Z" style="stroke:black;stroke-width:8.49px;"/>
            </g>
            <g transform="matrix(1,0,0,1,-5.22713,-5.43519)">
                <circle cx="676.373" cy="401.591" r="40.496" style="fill:white;stroke:black;stroke-width:7.5px;"/>
            </g>
            <g transform="matrix(10.6224,0,0,10.6224,-2503.08,-3027.97)">
                <text x="296.981px" y="324.998px" style="font-family:'SignPainter-HouseScript', 'SignPainter';font-size:12px;">v</text>
            </g>
            <path d="M537.362,331.95L621.193,343.218C621.193,343.218 639.185,324.072 670.018,324.548C702.445,325.049 719.993,344.272 719.993,344.272L804.41,332.705L817.582,378.771L740.202,410.675C740.202,410.675 738.5,423.555 728.368,436.091C720.549,445.764 705.896,457.428 705.896,457.428L695.317,543.27L645.39,543.41L634.979,458.273C634.979,458.273 619.755,448.749 611.792,437.228C604.745,427.031 600.012,410.106 600.012,410.106L524.709,378.86L537.362,331.95Z" style="fill:none;stroke:black;stroke-width:7.5px;"/>
            <g transform="matrix(1,0,0,1,-3.83988,1.51642)">
                <circle cx="554.32" cy="359.176" r="3.516" style="stroke:black;stroke-width:7.5px;"/>
            </g>
            <g transform="matrix(1,0,0,1,3.92192,0)">
                <circle cx="576.182" cy="367.971" r="5.279" style="stroke:black;stroke-width:7.5px;"/>
            </g>
            <g transform="matrix(-1,0,0,1,1345.19,1.51642)">
                <circle cx="554.32" cy="359.176" r="3.516" style="stroke:black;stroke-width:7.5px;"/>
            </g>
            <g transform="matrix(-1,0,0,1,1224.34,163.382)">
                <circle cx="554.32" cy="359.176" r="3.516" style="stroke:black;stroke-width:7.5px;"/>
            </g>
            <g transform="matrix(-1,0,0,1,1337.42,0)">
                <circle cx="576.182" cy="367.971" r="5.279" style="stroke:black;stroke-width:7.5px;"/>
            </g>
            <g transform="matrix(-1,0,0,1,1246.2,125.072)">
                <circle cx="576.182" cy="367.971" r="5.279" style="stroke:black;stroke-width:7.5px;"/>
            </g>
        </g>
    </g>
</svg>
